<svg width="18" height="22" viewBox="0 0 18 22" fill="none" xmlns="http://www.w3.org/2000/svg">
<path d="M6 5.5H12C12 3.84315 10.6569 2.5 9 2.5C7.3431 2.5 6 3.84315 6 5.5ZM4 5.5C4 2.73858 6.23858 0.5 9 0.5C11.7614 0.5 14 2.73858 14 5.5H17C17.5523 5.5 18 5.94772 18 6.5V20.5C18 21.0523 17.5523 21.5 17 21.5H1C0.44772 21.5 0 21.0523 0 20.5V6.5C0 5.94772 0.44772 5.5 1 5.5H4ZM2 7.5V19.5H16V7.5H2ZM6 9.5C6 11.1569 7.3431 12.5 9 12.5C10.6569 12.5 12 11.1569 12 9.5H14C14 12.2614 11.7614 14.5 9 14.5C6.23858 14.5 4 12.2614 4 9.5H6Z" fill="#3D3D3D"/>
</svg>
