<svg width="20" height="19" viewBox="0 0 20 19" fill="none" xmlns="http://www.w3.org/2000/svg">
<path d="M14.5 0.5C17.5376 0.5 20 3 20 6.5C20 13.5 12.5 17.5 10 19C7.5 17.5 0 13.5 0 6.5C0 3 2.5 0.5 5.5 0.5C7.35997 0.5 9 1.5 10 2.5C11 1.5 12.64 0.5 14.5 0.5ZM10.9339 16.1038C11.8155 15.5485 12.61 14.9955 13.3549 14.4029C16.3337 12.033 18 9.4435 18 6.5C18 4.14076 16.463 2.5 14.5 2.5C13.4241 2.5 12.2593 3.06911 11.4142 3.91421L10 5.32843L8.5858 3.91421C7.74068 3.06911 6.5759 2.5 5.5 2.5C3.55906 2.5 2 4.1565 2 6.5C2 9.4435 3.66627 12.033 6.64514 14.4029C7.39 14.9955 8.1845 15.5485 9.0661 16.1038C9.3646 16.2919 9.6611 16.4729 10 16.6752C10.3389 16.4729 10.6354 16.2919 10.9339 16.1038Z" fill="#3D3D3D"/>
</svg>
