<svg width="16" height="19" viewBox="0 0 16 19" fill="none" xmlns="http://www.w3.org/2000/svg">
<path d="M8 18.7733L2.6967 13.47C-0.232233 10.541 -0.232233 5.79232 2.6967 2.86339C5.62563 -0.0655463 10.3743 -0.0655463 13.3033 2.86339C16.2323 5.79232 16.2323 10.541 13.3033 13.47L8 18.7733ZM12.1248 12.2914C14.4028 10.0134 14.4028 6.31995 12.1248 4.0419C9.84675 1.76384 6.15327 1.76384 3.87521 4.0419C1.59715 6.31995 1.59715 10.0134 3.87521 12.2914L8 16.4163L12.1248 12.2914ZM8 9.83335C7.0795 9.83335 6.33333 9.08719 6.33333 8.16669C6.33333 7.24621 7.0795 6.50002 8 6.50002C8.9205 6.50002 9.66667 7.24621 9.66667 8.16669C9.66667 9.08719 8.9205 9.83335 8 9.83335Z" fill="#141311"/>
</svg>
